<?xml version="1.0" encoding="utf-8"?><!-- Uploaded to: SVG Repo, www.svgrepo.com, Generator: SVG Repo Mixer Tools -->
<svg width="800px" height="800px" viewBox="0 0 64 64" xmlns="http://www.w3.org/2000/svg"><path d="m12.76 23.82c-.25.17-.29 6.09-.25 6.25s.33.21.62.05.17-5.63.17-5.92-.4-.47-.54-.38zm-.17 8.42s0 5.54 0 5.71.38.08.42 0 0-5.5 0-5.67-.29-.04-.42-.04zm1.54-2.54c0 .21 0 7.46.13 7.58s.37.17.5.17 0-7.5 0-7.75-.6-.12-.63 0zm6.63-14.25c-1.34 1.62-2 3.11-1.84 3.29a1.43 1.43 0 0 0 1.08.26c.21-.13.5-1.42 1-2.25s2.67-3.33 2.83-3.5-.12-.21-.58-.29-1.16.86-2.49 2.49zm22.75 6.83c-.25.09-.54.63-.42.79s3.13 2.67 3.25 2.75.42-.33.46-.54a17.07 17.07 0 0 0 -3.29-3zm1-1.5c-.34 0-.46.5-.46.5.25.25 3.54 3 3.54 3a1.79 1.79 0 0 0 .13-.41 16.29 16.29 0 0 0 -3.21-3.09zm.83-1.78c-.21 0-.65.6-.54.67s2.75 2.5 2.87 2.54.21-.33.25-.58a13.66 13.66 0 0 0 -2.58-2.63zm1-.33c.17 0 .17-.29.13-.67a1.19 1.19 0 0 0 -.8-.75c-.16 0-.29.54-.29.54.17.08.79.87.96.91zm4.5 7.33a18.09 18.09 0 0 0 -.25 3.75c.08.25.33.29.58 0a14.51 14.51 0 0 0 0-3.54.24.24 0 0 0 -.33-.21zm6.92-1.92c-.38-.7-3.42-1.08-3.42-1.08a4 4 0 0 0 -.62-1.83c-.59-.88-3.71-.88-3.71-.88s-.71-3.08-1.17-4.37-4.84-8.22-11.37-9.43a20.46 20.46 0 0 0 -17.34 4.17 15.64 15.64 0 0 0 -5.91 9.34 18.23 18.23 0 0 0 -3.88.29c-1.58.38-1.42 2.59-1.42 2.59a2.85 2.85 0 0 0 -2.91 1c-.29.45-.13 10.7.21 11.79s2.58 1 2.58 1a23.15 23.15 0 0 0 .33 3.5 4.67 4.67 0 0 0 2.87 1.11c1.33.09 4.08-.08 4.08-.08s.21 2.08.29 2.71a13.71 13.71 0 0 0 3.21 5c1.92 2 8.33 8.33 9.29 8.62s5.92 1 8.29-.42 8.25-9.58 9.79-11.75a8.81 8.81 0 0 0 1.38-5s4.33-.16 5.12-.62 1-2 1-2 .62 0 .83 0 2.42-.75 2.71-1.5.14-11.46-.23-12.17zm-49 10.92c-.17 0-.75.21-.92-.08a92.22 92.22 0 0 1 0-10.25c.16-.35 1.08-.21 1.13 0s-.05 10.33-.21 10.33zm37.37 8.08c-.58 1-9.71 12-10.37 12.38s-5.42.21-5.79 0-8.92-8-10-9.46a8.33 8.33 0 0 1 -1.54-2.58c0-.21-.16-12.71-.12-13.13 0-.26 5.54-.33 7.75-1.54s6.75-4.29 6.75-4.29 4 3 5.33 3.71a16.87 16.87 0 0 0 5.16.83c.71 0 3-.16 3-.16s.42 13.16-.17 14.23zm6.63-10.16-1.63-1s-.25 1.08 0 1.21 1.25.58 1.29.75 0 1.25 0 1.25-2-1.34-2.08-1.21-.42.62-.21.83 2.25 1.84 2.29 2.21a3.87 3.87 0 0 1 0 .92 18.84 18.84 0 0 0 -2.5-2c-.29 0-.41.46-.33.66s1.58 1.55 1.42 1.67a14.69 14.69 0 0 1 -2.3.13s-.37-11.75-.58-11.88a7.5 7.5 0 0 0 -2 .13 2 2 0 0 1 -.58-.05s-3.08-2.95-3.38-2.83a.67.67 0 0 0 -.37.71c.08.17 2.67 2.42 2.67 2.42l-1 .08a28.81 28.81 0 0 0 -2.29-1.88.55.55 0 0 0 -.42.38c0 .12 1.87 1.5 1.58 1.5a7.18 7.18 0 0 1 -4.91-1.67c-2.55-1.91-3-2.16-3.25-2.87s-.55-1-.92-1.13a1.31 1.31 0 0 0 -1.46 1c-.33.88-2.37 2.83-6 4.5a22.08 22.08 0 0 1 -7.71 1.83 5.49 5.49 0 0 1 -1.37-.16s.16-2-.09-2.13-.75.09-.75.21.46 11.71.13 12.42-2.5.79-3.46.83a1.61 1.61 0 0 1 -1.55-.84c-.09-.21-.63-16.17.21-16.88a2.29 2.29 0 0 1 2-.12 5.2 5.2 0 0 1 2 .79c.33.37 1 .67 1 .54a11.9 11.9 0 0 0 -.17-1.92 2.62 2.62 0 0 0 -.33-.75s2.29-6.57 7.38-9.57a20.09 20.09 0 0 1 16-1.87c5.08 1.5 8.71 9 9.21 10.66s.37 4.55.58 4.67a5.4 5.4 0 0 0 1.33.13 19.54 19.54 0 0 1 .21-2.59c.13 0 2.25.25 2.42 1.67s-.08 9.24-.08 9.24zm3.33 2.08c-.17.25-1.62 1.13-1.62.79s.33-10.55.53-10.79 1 .33 1 .33.26 9.45.09 9.67zm-27.71-1.43a2.42 2.42 0 0 0 -3-2 2.37 2.37 0 0 0 -.7 4.34 2.47 2.47 0 0 0 3.7-2.34zm-3.07 1.43a1.25 1.25 0 0 1 .38-2.29 1.27 1.27 0 0 1 1.56 1.06 1.31 1.31 0 0 1 -1.94 1.23zm12.91-3.3a2.36 2.36 0 0 0 -.71 4.3 2.47 2.47 0 0 0 3.66-2.33 2.4 2.4 0 0 0 -2.95-1.97zm-.12 3.38a1.25 1.25 0 0 1 .38-2.29 1.27 1.27 0 0 1 1.52 1.05 1.31 1.31 0 0 1 -1.9 1.24zm.19 9.29a17.69 17.69 0 0 1 -4.93 1.13c-4.29.5-6.13-1.5-6.56-1.45s-.84.56-.69.8 1.48 1.81 6 1.87c4.27.06 7-1.34 7-1.53a1 1 0 0 0 -.82-.82z" fill="currentColor"/></svg>
