<?xml version="1.0" encoding="utf-8"?>

<!-- Uploaded to: SVG Repo, www.svgrepo.com, Generator: SVG Repo Mixer Tools -->
<svg version="1.1" id="Icons" xmlns="http://www.w3.org/2000/svg" xmlns:xlink="http://www.w3.org/1999/xlink"
	 viewBox="0 0 32 32" xml:space="preserve" fill="#FFD700">
<style type="text/css">
	.st0{fill:none;stroke:currentColor;stroke-width:2;stroke-linecap:round;stroke-linejoin:round;stroke-miterlimit:10;}
</style>
<line class="st0" x1="16" y1="21" x2="16" y2="29"/>
<path class="st0" d="M14,10c0-1.1,0.9-2,2-2s2,0.9,2,2"/>
<path class="st0" d="M21,27V11c0-4.4-2.2-8-5-8s-5,3.6-5,8v16"/>
<path class="st0" d="M11,13.9L11,13.9c-0.7,2-1.9,3.8-3.5,5.2l-1.9,1.6c-1.1,0.9-1.8,2.1-2,3.4L3,27l8,0v2h5h5v-2l8,0l-0.6-2.9
	c-0.3-1.3-1-2.6-2-3.4l-1.9-1.6c-1.6-1.4-2.8-3.1-3.5-5.2l0,0"/>
</svg>
