<?xml version="1.0" encoding="utf-8"?><!-- Uploaded to: SVG Repo, www.svgrepo.com, Generator: SVG Repo Mixer Tools -->
<svg width="800px" height="800px" viewBox="0 0 64 64" xmlns="http://www.w3.org/2000/svg"><path d="m20.67 26.38s.33-.42.12-.67a5.49 5.49 0 0 0 -3.16.29c-.67.42-3.21 7-3.21 7s2.67-4.25 3.71-5.5a3.08 3.08 0 0 1 2.54-1.12zm23.83-.58c.29 0 2.92 5.16 3 5.54s.38.16.67-.09-2-5.62-2.62-6.2-3.13-.5-3.42-.5-.46.54-.33.7a16.19 16.19 0 0 0 2.7.55zm-13.41-1.34c.16-.16-.67-1.5-.92-1.71s-.78 0-.71.09.83 1.66 1 1.79.46 0 .63-.17zm6.75-4.12c.16-.21-.05-.21-.21-.25a44.44 44.44 0 0 0 -3.5 3.5 2.1 2.1 0 0 0 .62.29c.25.04 2.92-3.33 3.09-3.54zm4.45 6.54c-3.2-2.29-7.66-.58-8.79 2s1.21 6.37 1.29 6.62-.12.88-.37 1a14.18 14.18 0 0 1 -4.08-.25c-.5-.33 1.29-4.29 1.58-6s-1.25-4.62-5.5-4.37a10.77 10.77 0 0 0 -9 5.37 33.47 33.47 0 0 0 -3.42 8.8 2.2 2.2 0 0 0 1.54 0c.38-.25 1.59-5.75 3.25-8a11.78 11.78 0 0 1 4.42-3.38s-.5 2 2.25 2.88 4.46-1.8 4.46-1.8a8.64 8.64 0 0 1 0 1.46c-.08.34-1.13 2.29-1.75 3.75s-.33 3 .54 3.13 7.38.29 8.13-.63-.09-2.29-.88-4.25a4 4 0 0 1 -.25-3.08 3.66 3.66 0 0 0 3.46 1.17 2.67 2.67 0 0 0 2.29-2.59 13.7 13.7 0 0 1 2.38 3.38c1 2.08 3 8.79 3.37 8.83s.92-.33 1.13-1.29-2.84-10.46-6.05-12.75zm1.39 10.29c.25.08.63.08.67 0a11 11 0 0 0 -.58-3.17 8.16 8.16 0 0 0 -1.84-2.54c-.23-.19-.87.25-.79.5s1.67 2.17 2 3.46.29 1.67.54 1.75zm-4.16-4a12.54 12.54 0 0 1 .91 2.21c0 .62-.21.83.13 1a2.78 2.78 0 0 0 .79.12 7.71 7.71 0 0 0 -1-3.71c-.04-.18-.92.05-.83.38zm-1.17 2c.37.21.54.25.58.12a5.24 5.24 0 0 0 -.46-1.75c-.13-.16-.66 0-.54.25s.07 1.13.42 1.34zm.11 8.21s3.38-1.88 3.5-2-.75-1.34-1.12-1.5-3.67.75-8.46.91-7.46-1-8.21-.91-1.75 1.66-1.75 1.66c.37 1.09 3.33 1.63 3.33 1.63s.67 2.41 1.63 2.5 1.87-1.88 1.87-1.88.54 0 1.88 0 4 0 4 0 1.25 1.84 2 1.67 1.33-2.12 1.33-2.12zm-1.37.83c-.38 0-1.13-1.54-1.42-1.62s-1.17.2-3.17.2-3.46-.16-3.62-.12-1.29 1.62-1.46 1.58a6.6 6.6 0 0 1 -1-3.12s1.67.58 6.17.46a43.61 43.61 0 0 0 5.75-.38s-.88 3-1.25 2.96zm-19.25-3.16c-.55.2-2.5 5.29-2.5 5.58s.37.25.62.29 2.29-5.5 2.29-5.5-.17-.42-.41-.37zm-.05 9.79a1.75 1.75 0 0 0 .59.16c.25 0 1.75-5.37 1.66-5.5a2.26 2.26 0 0 0 -.58-.33c-.08.13-1.67 5.67-1.67 5.67zm6.21-4.13c-.12.25-.7 4.46-.7 4.75s.45.29.7.21.71-4.58.75-4.79-.63-.32-.75-.17zm5.17 5.88c.08.33.63.21.63.21l1-5.75-1-.09s-.67 5.29-.59 5.63zm4.33-3.79c.09.12.79 4.91 1 5s.42 0 .63-.21-.63-4.79-.63-4.92-1.07.02-1 .13zm3.75-.38c0 .13 1.67 5.17 1.67 5.17s.54.08.71-.13a47.55 47.55 0 0 0 -1.63-5.29s-.69.09-.75.25zm4.34-3.21c.2.17 2.7 3.5 2.87 3.67s.33.08.63-.17-2.63-3.83-2.8-4-.82.41-.7.5zm3.95-1.91c.17.12 1.46 2.29 1.71 2.54s.38 0 .54-.17-1.37-2.54-1.5-2.71-.85.26-.75.34zm9 1.41c-2.16-6.58-3.2-16.71-5.45-25.71s-4.25-11.37-8.46-13.58a20.06 20.06 0 0 0 -15.84-.87c-5.29 2.08-8 9-9.75 14.83s-4.54 16.62-6.25 22.17a37.25 37.25 0 0 0 -1.62 10.83 1.71 1.71 0 0 0 1.25.21 21.64 21.64 0 0 0 2.17-1.29s-.5 5.91-.25 6.25 1.33.29 3.66-.38a23.12 23.12 0 0 0 5.67-3.17s.17 5.21.33 5.38.29.21 1.29-.13a14.74 14.74 0 0 0 2.88-1.79s.75 1.92 1 2.33 1.12.42 1.87.17 3.5-3.5 3.5-3.5a6.6 6.6 0 0 1 .88.92c.37.5 2.29 3.33 2.29 3.33s.37.13 1.33-.46a17.5 17.5 0 0 0 2.84-3.33s2.12 1.79 2.5 2.21a7.21 7.21 0 0 0 2.45 1 2.5 2.5 0 0 0 .46-1.42c0-.67 1.09-5.37 1.09-5.37a13.67 13.67 0 0 0 1.62 1.66 13.29 13.29 0 0 0 4.42 2.17c.38 0 .71-.58.75-1s-2.08-4-2.08-4l1.29.83a16.15 16.15 0 0 0 3.71.88 4.86 4.86 0 0 0 2.62-1.55c.29-.49-.08-1.03-2.21-7.62zm-35.2-30.83a2.79 2.79 0 0 1 1.62.33c.92.46 1.63 2.13 1.75 2.29s.58-.33.58-.33a16 16 0 0 0 -1.08-1.79 3.69 3.69 0 0 0 -2.21-1.5l1.42-2.54a3.6 3.6 0 0 1 1.58 1.12 19 19 0 0 1 1.29 3.21c.13.17.55 0 .55 0a8.48 8.48 0 0 0 -.67-2.92 6.66 6.66 0 0 0 -1.88-2.54 3.14 3.14 0 0 1 1-1.21 16.18 16.18 0 0 1 2.84-1.7s.75.58 1.37 3 1 5 1 5.21.67 0 .79-.05a11.55 11.55 0 0 0 -.29-3.62 29.2 29.2 0 0 0 -1.37-4.79 14.75 14.75 0 0 1 3.62-.71 8.89 8.89 0 0 1 4.88.66c.12 0-.84 7.67-.79 7.84s.33.21.54.16 1.46-7.7 1.46-7.7a3.58 3.58 0 0 1 1 .41c.71.38 2.25 1.46 2.25 1.46a20 20 0 0 0 -1 2.17 34 34 0 0 0 -1.42 5c0 .25.21.12.46-.3s2.83-6.2 2.83-6.2.63.29 1 .54a5.82 5.82 0 0 1 1.25 1.33c0 .13-2 2.79-2 3s.67.42.83.46 1.59-2.67 1.75-2.5 1.38 3.92 1.38 3.92l-1.83 2.62s.33.46.66.42 1.75-2 1.75-2l2.13 7.83s-1.75-2.91-2.92-3.29a7.79 7.79 0 0 0 -2.54-.17c-.25 0 .37-1.58.29-2s-2.54.38-2.54.38a4.78 4.78 0 0 1 .33-.92c.25-.54 1.54-2.33 1.54-2.33a.42.42 0 0 0 0-.63c-.33-.29-1.58-.16-4.08.92a8.62 8.62 0 0 0 -3.62 2.79 15.12 15.12 0 0 0 -1-2 4.53 4.53 0 0 0 -2.25-2c-.25 0-.34.63-.42.92a7.5 7.5 0 0 0 .67 1.87 1.38 1.38 0 0 1 -.5 1.09c-.25.08-.34-.67-.42-.88s-.08-.12-.46-.21-.79 1.67-.92 1.84-.25 0-.87-.34-1.54-3.08-1.67-3.29-.2-.29-.54-.29-.5.13-.54.67-.54 3-.54 3a14.28 14.28 0 0 0 -2.08-1 10.23 10.23 0 0 0 -3.67-1c-.38.12 0 .87.42 1.12a27.55 27.55 0 0 1 2.29 2.67 1.51 1.51 0 0 0 -.84-.29c-.62-.09-2.29-.38-2.79.08s1.84 2.5 1.84 2.5a8.42 8.42 0 0 0 -2.05-.25 5.93 5.93 0 0 0 -2.66.67 70.52 70.52 0 0 1 3.5-10.21zm35.16 38.42a6 6 0 0 1 -4-1.5c-1.79-1.55-2.29-2.5-2.58-2.5s-1.38.29-1.33.58a31.09 31.09 0 0 0 .7 3.12c.38 1.3.63 2 .63 2a12.15 12.15 0 0 1 -2.38-2.55c-.7-1.2-.75-1.58-1-1.62s-1.41.75-1.41.75-.42 2-.88 4.33-.5 2.54-.5 2.54a41.85 41.85 0 0 0 -3.87-2.58 1.21 1.21 0 0 0 -1 .42c-.17.21-2.13 2.87-2.13 2.87a38.51 38.51 0 0 1 -2.62-3.12c-.38-.67-.84-1-1-1s-3.34 3.41-3.71 3.66-1.08-.12-1.21-.37a20.16 20.16 0 0 0 -1.21-2.33c-.12 0-1.87 1.5-2.71 1.92a7 7 0 0 1 -1 .46 39 39 0 0 0 0-4.92.62.62 0 0 0 -.79-.33 25.14 25.14 0 0 1 -4.92 2.71 15.75 15.75 0 0 1 -3.5.87s.55-7 .3-7.17a1.78 1.78 0 0 0 -1.38 0l-2.17 1.7a102 102 0 0 1 2.42-10.66c1.38-4.46 4.25-13.29 4.63-13.88a3.11 3.11 0 0 1 3.12-1.32c1.79.21 2.75.54 3 .33s.46-.41.33-.46-2-2.16-1.54-2.25a3.37 3.37 0 0 1 1.79.25c.8.3 1.17.71 1.38.55a1.05 1.05 0 0 0 .29-.5 11.3 11.3 0 0 0 -1.58-2.42c-.67-.58-1-.79-1-.79a17.29 17.29 0 0 1 3.17 1.16c.75.5 1.16.55 1.25.34s.62-2.54.62-2.54a6.62 6.62 0 0 0 1.08 2.12 1.32 1.32 0 0 0 1.21.46l1.17-.21.67-.62s.2.66.58.75.83-.5 1.08-1.3a5.89 5.89 0 0 0 .13-1.95 6 6 0 0 1 1.08 1.79c.42 1.08.29 1.75.63 1.87s.75-.66 2.33-1.87a25.55 25.55 0 0 1 4-2.63c.17 0-1.25 3-1.21 3.63s.17 1 .54 1a10.24 10.24 0 0 0 1.88-.67s-.17 1.29.37 1.58 1.59 0 2.67.46 3.13 2.46 3.88 6.17 2.99 13.67 2.99 13.67-1.54-1.38-1.7-1.09-.5.59-.34.79 2.21 1.67 2.34 1.88.62 1.79.62 1.79-2.42-2.5-2.54-2.29-.33.87-.17 1 2.92 2.5 3 2.75.38 1 .38 1-3.25-2.92-3.38-2.67a2.25 2.25 0 0 0 -.08 1c.08.13 3.71 2.92 3.83 3.13a4.84 4.84 0 0 1 .3.75 31.17 31.17 0 0 0 -3.55-2.13 6 6 0 0 0 -.12 1s3.79 2 3.92 2.21.41.83.2.88zm-21.91-38.59c.25-.08 0-3.83-.13-4s-.67-.08-.92 0l.42 4a1.18 1.18 0 0 0 .63 0zm-10.88 17.71a8.18 8.18 0 0 0 -1.83 2.58 10.8 10.8 0 0 0 -.59 3.17c.05.12.42.12.67 0s.29-.5.58-1.79 1.88-3.21 2-3.46-.6-.69-.83-.5zm1.5 4a11.78 11.78 0 0 1 .92-2.21c.08-.33-.8-.56-.88-.42a7.71 7.71 0 0 0 -1 3.71 2.87 2.87 0 0 0 .8-.12c.37-.17.12-.38.16-1zm2.08-.25c.38-.21.3-1.13.42-1.38s-.4-.41-.54-.25a5.24 5.24 0 0 0 -.46 1.75c.04.09.21.05.58-.16z" fill="currentColor"/></svg>
